<?xml version="1.0" encoding="utf-8"?>
<!-- Generator: Adobe Illustrator 21.0.0, SVG Export Plug-In . SVG Version: 6.00 Build 0)  -->
<svg version="1.1" id="Layer_1" xmlns="http://www.w3.org/2000/svg" xmlns:xlink="http://www.w3.org/1999/xlink" x="0px" y="0px"
	 viewBox="0 0 958 504.4" style="enable-background:new 0 0 958 504.4;" xml:space="preserve">
<style type="text/css">
	.st0{fill:#137CA0;}
	.st1{fill:#6EAADA;}
	.st2{fill:#58595B;}
</style>
<g>
	<path class="st0" d="M349.7,167h-64v-2.7c9.5,0,13.1-5.5,13.1-19.8V26.6l-55.4,142.3h-2.7L177.1,42.4v70.1
		c0,13.7,3.8,51.8,30.5,51.8v2.7h-64.8v-2.7c27.2,0,31.6-37.9,31.6-51.8V38c-8-14.3-16.6-16-22.3-16.4v-2.7h56.6l50.7,101.9
		l39.4-101.9h48.8v2.7c-9.7,0-13.1,4.2-13.1,17.1v105.9c0,14.3,5.5,19.8,15.2,19.8V167z"/>
	<path class="st0" d="M450.7,153.8c-2.3,8-12.6,15.2-25.9,15.2c0,0-21.1,0-23.2-17.9c-2.9,10.1-14.5,17.9-29.5,17.9
		c-4,0-25.3-1.7-25.3-21.5c0-21.9,17.5-25.1,54.5-34.1v-13.3c0-21.9-12.2-33-26.7-25.7c-3.4,1.7-6.3,5.1-1.9,6.3
		c3.4,0.8,5.9,3,7.8,6.3c3.4,6.5,0.8,14.5-5.7,18.1c-6.5,3.4-14.7,0.8-18.1-5.7c-2.3-4.8-1.9-10.5,1.1-14.1c2.3-3.2,5.5-8,15.2-13
		c9.5-5.1,20.2-4.4,20.2-4.4c27.6,0,38.9,17.3,38.9,42.1v31.4c0,0,0,14.9,10.1,14.7c0,0,4.8,0,6.1-3.6L450.7,153.8z M379.1,142.2
		c0,0,0,13.9,10.9,13.9c5.5,0,9.3-4.2,11.4-9.3v-30.5C382.5,120.5,379.1,131.9,379.1,142.2"/>
	<path class="st0" d="M517.1,148.3c-3.4,10.5-16,20.6-30.7,20.6c-16.6,0-31.2-6.7-31.2-32.2V72.5h-11.8l-0.4-2.7h12.2V41.6l30.9-4.4
		v32.6h26.1l-0.4,2.7h-25.7v63.6c0,11.8,4.6,17.7,16,17.7c6.1,0,10.5-3.8,12.6-6.7L517.1,148.3z"/>
	<path class="st0" d="M566.7,168.9c-34.7,0-52.2-22.9-52.2-50.5c0-27.8,17.5-50.5,52.2-50.5c34.9,0,52.2,22.7,52.2,50.5
		C618.9,146,601.7,168.9,566.7,168.9 M566.7,70.6c-13.3,0-15.4,9.7-15.4,47.8s2.1,47.8,15.4,47.8c13.3,0,15.4-9.7,15.4-47.8
		S580,70.6,566.7,70.6"/>
	<path class="st0" d="M730,163.2l-35.8,5.5c-5.7,0.8-5.9-4-5.9-4v-17.9c-3.4,11.6-17.3,22.1-32.6,22.1c-16.6,0-30.3-6.9-30.3-32.2
		V90.8c0-12.6,0.4-14.5-11.8-16.2v-2.5l42.9-4.2v68.2c0,11.8,4.2,17.5,15.8,17.5c5.9,0,12.6-4,16-12.6V91.5
		c0-12.8,0.8-15.6-9.9-16.8v-2.5l40.8-4.2v80.2c0,10.1,1.9,11.6,10.7,12.6V163.2z"/>
	<path class="st0" d="M674.2,278.5l-35.8,5.5c-5.7,0.8-5.9-4-5.9-4v-17.9c-3.4,11.6-17.3,22.1-32.6,22.1c-16.6,0-30.3-6.9-30.3-32.2
		v-45.9c0-12.6,0.4-14.5-11.8-16.2v-2.5l42.9-4.2v68.2c0,11.8,4.2,17.5,15.8,17.5c5.9,0,12.6-4,16-12.6v-49.5
		c0-12.8,0.8-15.6-9.9-16.8v-2.5l40.8-4.2v80.2c0,10.1,1.9,11.6,10.7,12.6V278.5z"/>
	<path class="st0" d="M782.9,167h-48v-2.5c8-2.3,8.4-11.2,8.4-22.1V34.6c0-7.4-2.3-10.5-10.9-13.7v-2.5l41.9-8.4v132.4
		c0,11.6,1.1,20,8.6,22.1V167z M855.1,167h-34.3c-14.5,0-16.2-3.8-30.5-24.8c-6.3-9.3-12-17.9-12-17.9l22.3-23.4
		c4.6-4.8,20.8-28.8,0.6-28.4v-2.7h54.1v2.7c-7.8,0.2-32.4,6.9-55.8,34.1C815.1,128.5,833,151,833,151c6.9,9.7,15.6,13.3,22.1,13.3
		V167z"/>
	<path class="st0" d="M67.5,284.4H10v-1.9c9,0,12.2-12.6,12.2-26.9v-90.3c0-13.1-2.9-27.4-12.2-27.4v-1.7h57.5
		c29.3,0,60.8-0.4,60.8,36.6c0,31.4-37.7,35.6-41.9,35.6c13.7,0,51.8,2.3,51.8,38.3C138.2,283.6,103.9,284.4,67.5,284.4 M59.3,138.9
		v69h7.2c11.4,0,25.7-4.2,25.7-36c0-31.8-17.5-33-27.4-33H59.3z M65.6,210.7h-6.3v70.9h5.7c18.3,0,35,0.6,35-35.8
		C99.9,211.6,79.7,210.7,65.6,210.7"/>
	<path class="st0" d="M246.1,271.1c-2.3,8-12.6,15.2-25.9,15.2c0,0-21.1,0-23.2-17.9c-2.9,10.1-14.5,17.9-29.5,17.9
		c-4,0-25.3-1.7-25.3-21.5c0-21.9,17.5-25.1,54.5-34.1v-13.3c0-21.9-12.2-33-26.7-25.7c-3.4,1.7-6.3,5.1-1.9,6.3
		c3.4,0.8,5.9,3,7.8,6.3c3.4,6.5,0.8,14.5-5.7,18.1c-6.5,3.4-14.7,0.8-18.1-5.7c-2.3-4.8-1.9-10.5,1.1-14.1c2.3-3.2,5.5-8,15.2-13
		c9.5-5.1,20.2-4.4,20.2-4.4c27.6,0,38.9,17.3,38.9,42.1v31.4c0,0,0,14.9,10.1,14.7c0,0,4.8,0,6.1-3.6L246.1,271.1z M174.5,259.6
		c0,0,0,13.9,10.9,13.9c5.5,0,9.3-4.2,11.4-9.3v-30.5C177.9,237.9,174.5,249.2,174.5,259.6"/>
	<path class="st0" d="M287.9,286.3c-25.5,0-37.9-8.4-37.9-8.4v-26.9h2.7c3.8,13.9,15.8,32.6,35.2,32.6c14.9,0,17.9-18.1,1.9-28.6
		l-21.3-12.8c-20.2-12.8-25.5-31.8-13.3-46.5c0,0,7.8-10.3,30.3-10.3c24.2,0,34.5,6.1,34.5,6.1v22.5h-2.7
		c-3.2-13.1-14.7-25.9-31.8-25.9c-13.7,0-19.8,14.9-1.5,26.5l21.3,13.3c18.9,11.6,24.4,32.6,13.5,47.1
		C318.8,274.9,310.8,286.3,287.9,286.3"/>
	<path class="st0" d="M367.6,286.3c-25.5,0-37.9-8.4-37.9-8.4v-26.9h2.7c3.8,13.9,15.8,32.6,35.2,32.6c14.9,0,17.9-18.1,1.9-28.6
		l-21.3-12.8c-20.2-12.8-25.5-31.8-13.3-46.5c0,0,7.8-10.3,30.3-10.3c24.2,0,34.5,6.1,34.5,6.1v22.5H397
		c-3.2-13.1-14.7-25.9-31.8-25.9c-13.7,0-19.8,14.9-1.5,26.5l21.3,13.3c18.9,11.6,24.4,32.6,13.5,47.1
		C398.5,274.9,390.5,286.3,367.6,286.3"/>
	<path class="st0" d="M455.5,284.4h-48v-2.5c8-2.5,8.4-11.4,8.4-22.1v-28.2c0-7.4-2.3-10.3-10.9-14.1v-2.7l41.9-8.6v53.7
		c0,11.6,1.1,20,8.6,22.1V284.4z"/>
	<path class="st0" d="M429.2,174.4c7.6,0,13.9,6.1,13.9,13.9c0,7.6-6.2,13.7-13.9,13.7c-7.8,0-13.9-6.1-13.9-13.7
		C415.3,180.5,421.4,174.4,429.2,174.4"/>
	<path class="st0" d="M507.4,286.3c-34.7,0-52.2-22.9-52.2-50.5c0-27.8,17.5-50.5,52.2-50.5c34.9,0,52.2,22.7,52.2,50.5
		C559.6,263.3,542.4,286.3,507.4,286.3 M507.4,188c-13.3,0-15.4,9.7-15.4,47.8c0,38.1,2.1,47.8,15.4,47.8c13.3,0,15.4-9.7,15.4-47.8
		C522.8,197.7,520.7,188,507.4,188"/>
	<path class="st0" d="M786.9,284.4h-48v-2.5c8-2.3,8.4-11.6,8.4-22.3v-41.5c0-11.2-5.5-17.7-15.8-17.7c-6.5,0-13.7,6.3-15.2,12.8
		V260c0,11.6,1.1,19.8,8.6,21.9v2.5h-48v-2.5c8-2.3,8.2-11.2,8.2-21.9v-49.5c0-7.4-2.1-10.1-10.7-13.9v-2.7l41.9-8.6v21.5
		c5.1-12,18.9-21.5,31.4-21.5c16.6,0,30.5,6.7,30.5,32v42.3c0,11.6,1.1,20.4,8.6,22.3V284.4z"/>
	<path class="st0" d="M886.3,187.1v2.5c-9.9,0-17.1,4.2-29.5,33.7l-29.3,80.2c-5.9,17.7-12.2,24.6-16.6,28.4
		c-4.2,3.4-12.6,4.6-18.1,2.1c-8.2-3.8-12-13.5-8.2-21.7c3.6-8.2,13.3-11.8,21.5-8.2c4.2,1.9,6.9,5.3,8.2,9.3
		c0.8,2.9,6.1,4.2,10.7-10.7l4-10.9c-6.5-15-44-91.4-44-91.4c-4.6-9.7-11.4-10.5-15.2-10.7v-2.5h57.9v2.5c-12.6,0-5.3,15.4-5.3,15.4
		l21.9,44.6l9.9-26.9c0,0,12.2-33-13.3-33v-2.5H886.3z"/>
	<path class="st1" d="M120,395.7c0.2,13.2-8.3,21.5-21,21.7c-3.8,0.2-14.6-0.2-21-6.6c-1.6-1.4-7.4-9.3-9.4-12.1
		c-6,18.1-39.3,28.1-53.5,6.7c-14.9-22.3,7.5-38.6,19.6-45.9l4.6-2.8l-6.9-10.4c-15.7-21.5-5.8-45.1,17.1-46.8
		c11.3-0.8,20.4,4.4,23.9,14.5c2,6.1,5.5,19.9-12.6,33l19.5,29.2c6.1-11.9,13.4-15.7,19.2-17.3c3.8-1.1,8.9-0.8,12.4,2
		c4.9,3.9,5.5,11.3,1.2,16.3c-4.1,4.9-11.5,5.5-16.3,1.3c-2.4-1.9-3.9-4.6-3.9-7.7c-0.2-3.8-7.9-0.5-11.3,7.1
		c2.4,3.8,10.2,15.4,11.8,17.3c5.3,7.7,11.3,8.3,13.7,8.3c5.5,0,10.2-1.9,11-7.9H120z M40.5,358.6l-4.6,3
		c-7.1,5.5-10.1,19.3,1.3,33.8c7.2,9.3,23.1,14.8,29.8,1.4L40.5,358.6z M55.5,305.1c-7.4,1.1-14.9,12.1-6.4,24.5l10.4,15.5
		C75.9,334,72.7,320.3,70.2,315C67.2,308.7,61.7,304.1,55.5,305.1"/>
	<path class="st1" d="M255.9,323.2v101.3c0,3.2-0.6,17.1,8.7,17.1v1.8h-50.9v-1.8c5.1,0,4.7-14,4.7-17.1V378h-47.7v46.5
		c0,3.2-0.6,17.1,4.7,17.1v1.8h-51v-1.8c9.7,0,8.9-14,8.9-17.1V323.2c0-2,0.6-17-8.9-17v-1.6h51v1.6c-5.9,0-4.7,15-4.7,17v53h47.7
		v-53c0-2,0.8-17-4.7-17v-1.6h50.9v1.6C255.7,306.2,255.9,321.2,255.9,323.2"/>
	<path class="st1" d="M360,395.9h-53.6c0,30,9.5,37.8,22.7,40.8c9.9,2.2,23.1-3.7,27-20.5l1.8,0.4c-2.6,14.6-17,28.6-41.6,28.6
		c-25.8,0-46.7-20.5-46.7-47.1c0-33.5,25.4-47.5,49.7-47.5C340.1,350.6,360,358.9,360,395.9 M331.4,394.1c0-24.8-2.6-41.8-11.4-41.8
		c-9.1,0-13.6,22.9-13.6,41.8H331.4z"/>
	<path class="st1" d="M473.7,441.8v1.6h-49.3v-1.6c7.5-2.2,7.9-10.8,7.9-20.9v-39.6c0-11.2-4.1-16.6-13.6-16.6
		c-4.3,0-8.9,3.5-11.6,7.7v48.7c0,10.8,1,18.7,8.1,20.7v1.6h-49.3v-1.6c7.5-2.2,7.7-10.4,7.7-20.7v-48.1c0-6.9-2.2-9.7-10.2-12.6
		v-1.6l43.8-8.3v19.1c5.1-10.4,15.6-19.1,26.2-19.1c15.8,0,32.3,6.3,32.3,30v40.4C465.7,431.8,466.8,440.1,473.7,441.8"/>
	<path class="st1" d="M590.6,441.8v1.6h-49.3v-1.6c7.5-2.2,7.9-10.8,7.9-20.9v-39.6c0-11.2-4.1-16.6-13.6-16.6
		c-4.3,0-8.9,3.5-11.6,7.7v48.7c0,10.8,1,18.7,8.1,20.7v1.6h-49.3v-1.6c7.5-2.2,7.7-10.4,7.7-20.7v-48.1c0-6.9-2.2-9.7-10.2-12.6
		v-1.6l43.8-8.3v19.1c5.1-10.4,15.6-19.1,26.2-19.1c15.8,0,32.3,6.3,32.3,30v40.4C582.5,431.8,583.7,440.1,590.6,441.8"/>
	<path class="st1" d="M696.7,430.8c-2.8,8.7-13,14.4-25.4,14.4c0,0-21.9,0-23.7-17.7c-2.6,10.2-12.6,17.7-26.6,17.7
		c-7.5,0-24.6-3.4-24.6-20.1c0-19.7,16-23.5,51-31.7v-12.6c0-20.5-11.6-31.5-25.2-24.4c0,0-4.3,2.6,2.4,4.9c3.4,1.2,5.5,3.9,7.1,7.5
		c3,7.3-0.4,15.2-7.7,18.3c-7.1,2.8-15.2-0.6-18.1-7.7c-2-5.1-1-11,2.4-14.6c2.4-2.6,5.9-6.1,13.2-10.1c8.9-4.7,18.5-4.1,18.5-4.1
		c25.8,0,40.2,16.2,40.2,39.4v29.4c0,0,0,14.2,9.5,13.8c0,0,4.9,0,5.9-3.4L696.7,430.8z M647.4,395.3c-16.2,3.5-16,15.6-16,24.8
		c0,0-0.2,13,7.7,13c3.4,0,6.1-2.8,8.3-7.5V395.3z"/>
	<path class="st1" d="M839.2,352.4v1.6c-11.8,0-16.6,7.5-26.2,32.3l-20.7,58.9h-9.9l-25.8-57l-19.1,57h-10.2l-36.1-79
		c-5.1-10.2-11.2-11.8-14.8-12.2v-1.6h53.2v1.6c-8.7,0-0.2,16.6-0.2,16.6l18.3,39l7.9-23.1l-9.3-20.3c-5.1-10.2-6.3-11.8-9.9-12.2
		v-1.6h49.3v1.6c-9.5,0-1.2,16.6-1.2,16.6l18.3,39.2c0,0,5.3-14.2,8.5-23.7c3.2-9.5,3-32.1-14.6-32.1v-1.6H839.2z"/>
	<path class="st1" d="M948,352.4v1.6c-14.2,0-18.7,7.5-29.2,32.3L894.2,457c-6.1,19.7-11.8,27.4-16.4,31.1c-4.3,3.5-13.2,4.5-18.9,2
		c-8.5-3.9-12-13.8-8.5-22.3c3.9-8.5,13.8-12.2,22.3-8.5c4.3,2,7.3,5.1,8.7,9.3c0.8,3,5.7,6.7,11.2-13l-44.9-89.5
		c-5.5-10.2-12-11.8-16-12.2v-1.6h61.7v1.6c-13.2,0-4.5,16.6-4.5,16.6l20.1,39l8.1-23.8c0,0,9.7-31.7-15-31.7v-1.6H948z"/>
	<rect x="295.2" y="386.5" class="st1" width="52.7" height="9.4"/>
	<rect x="168.6" y="373.3" class="st1" width="51.2" height="8.4"/>
	<path class="st2" d="M133.7,468.6v2.6h0.1c0.5-1,1.2-1.7,2-2.3c0.8-0.5,1.9-0.8,3.1-0.8c1,0,2,0.3,2.8,0.8c0.8,0.5,1.4,1.3,1.7,2.3
		c0.5-1,1.1-1.8,2.1-2.3c0.9-0.5,1.9-0.8,2.9-0.8c3.4,0,5.2,1.8,5.2,5.5v10.6h-1.9v-10.5c0-1.3-0.3-2.3-0.8-3c-0.5-0.7-1.5-1-2.9-1
		c-0.8,0-1.5,0.2-2.1,0.5c-0.5,0.3-1,0.7-1.3,1.3c-0.3,0.5-0.5,1.1-0.7,1.8c-0.1,0.7-0.2,1.4-0.2,2.1v8.8h-1.9v-10.6
		c0-0.5-0.1-1-0.2-1.5c-0.1-0.5-0.3-0.9-0.5-1.2c-0.3-0.4-0.6-0.6-1-0.8c-0.4-0.2-0.9-0.3-1.5-0.3c-0.8,0-1.5,0.1-2.1,0.4
		c-0.6,0.3-1.1,0.7-1.4,1.2c-0.4,0.5-0.7,1.1-0.8,1.8c-0.2,0.7-0.3,1.5-0.3,2.3v8.7h-1.9v-15.6H133.7z"/>
	<path class="st2" d="M178.7,471.1c0.3-0.7,0.8-1.2,1.3-1.6c0.6-0.4,1.2-0.7,1.9-0.9c0.7-0.2,1.6-0.3,2.5-0.3c0.7,0,1.4,0.1,2.1,0.2
		c0.7,0.1,1.3,0.4,1.8,0.7c0.5,0.4,1,0.9,1.3,1.5c0.4,0.7,0.5,1.5,0.5,2.6v8.3c0,0.8,0.4,1.2,1.1,1.2c0.2,0,0.4,0,0.6-0.1v1.6
		c-0.2,0-0.4,0.1-0.6,0.1c-0.2,0-0.4,0-0.7,0c-0.5,0-0.9-0.1-1.2-0.2c-0.3-0.1-0.5-0.3-0.7-0.6c-0.2-0.2-0.3-0.5-0.3-0.9
		c0-0.3-0.1-0.7-0.1-1.1h-0.1c-0.3,0.5-0.7,0.9-1,1.3c-0.4,0.4-0.7,0.7-1.2,1c-0.4,0.3-0.9,0.5-1.5,0.6c-0.6,0.1-1.2,0.2-2,0.2
		c-0.7,0-1.4-0.1-2-0.3c-0.6-0.2-1.2-0.4-1.7-0.8c-0.5-0.4-0.9-0.9-1.1-1.4c-0.3-0.6-0.4-1.2-0.4-2c0-1.1,0.2-1.9,0.7-2.6
		c0.5-0.6,1.1-1.1,1.9-1.4c0.8-0.3,1.7-0.5,2.7-0.7c1-0.1,2-0.3,3-0.4c0.4,0,0.7-0.1,1.1-0.2c0.3-0.1,0.6-0.2,0.8-0.3
		c0.2-0.2,0.4-0.4,0.5-0.6c0.1-0.3,0.2-0.6,0.2-1c0-0.6-0.1-1.2-0.3-1.6c-0.2-0.4-0.5-0.7-0.9-1c-0.4-0.2-0.8-0.4-1.3-0.5
		c-0.5-0.1-1-0.1-1.6-0.1c-1.2,0-2.2,0.3-3,0.9c-0.8,0.6-1.2,1.5-1.2,2.8h-1.9C178.2,472.5,178.4,471.7,178.7,471.1 M188.2,475.7
		c-0.1,0.2-0.4,0.4-0.7,0.5c-0.3,0.1-0.6,0.2-0.9,0.2c-0.8,0.1-1.6,0.3-2.5,0.4c-0.9,0.1-1.6,0.3-2.3,0.5c-0.7,0.2-1.3,0.5-1.7,1
		c-0.5,0.4-0.7,1-0.7,1.8c0,0.5,0.1,0.9,0.3,1.3c0.2,0.4,0.4,0.7,0.8,1c0.3,0.3,0.7,0.5,1.1,0.6c0.4,0.1,0.9,0.2,1.3,0.2
		c0.7,0,1.4-0.1,2.1-0.3c0.7-0.2,1.2-0.5,1.7-1c0.5-0.4,0.9-0.9,1.2-1.5c0.3-0.6,0.4-1.3,0.4-2.1L188.2,475.7L188.2,475.7z"/>
	<path class="st2" d="M221.4,468.6v1.6h-3.2v10.5c0,0.6,0.1,1.1,0.3,1.5c0.2,0.4,0.6,0.6,1.3,0.6c0.5,0,1.1,0,1.6-0.1v1.6
		c-0.3,0-0.6,0-0.8,0c-0.3,0-0.6,0-0.9,0c-1.3,0-2.2-0.2-2.7-0.7c-0.5-0.5-0.7-1.4-0.7-2.7v-10.7h-2.7v-1.6h2.7V464h1.9v4.7H221.4z"
		/>
	<path class="st2" d="M255,468.9c0.9,0.4,1.7,1,2.3,1.8c0.6,0.7,1.1,1.6,1.4,2.6c0.3,1,0.5,2.1,0.5,3.2c0,1.1-0.2,2.2-0.5,3.2
		c-0.3,1-0.8,1.9-1.4,2.6s-1.4,1.3-2.3,1.8c-0.9,0.4-2,0.7-3.2,0.7c-1.2,0-2.2-0.2-3.2-0.7c-0.9-0.4-1.7-1-2.3-1.8
		c-0.6-0.7-1.1-1.6-1.4-2.6c-0.3-1-0.5-2.1-0.5-3.2c0-1.1,0.2-2.2,0.5-3.2c0.3-1,0.8-1.9,1.4-2.6c0.6-0.7,1.4-1.3,2.3-1.8
		c0.9-0.4,2-0.7,3.2-0.7C253.1,468.2,254.1,468.4,255,468.9 M249.5,470.4c-0.7,0.4-1.3,0.9-1.7,1.5c-0.5,0.6-0.8,1.3-1,2.1
		c-0.2,0.8-0.4,1.6-0.4,2.4c0,0.8,0.1,1.6,0.4,2.4c0.2,0.8,0.6,1.5,1,2.1c0.5,0.6,1,1.1,1.7,1.5c0.7,0.4,1.5,0.6,2.4,0.6
		c0.9,0,1.7-0.2,2.4-0.6c0.7-0.4,1.3-0.9,1.7-1.5c0.5-0.6,0.8-1.3,1-2.1c0.2-0.8,0.4-1.6,0.4-2.4c0-0.8-0.1-1.6-0.4-2.4
		c-0.2-0.8-0.6-1.5-1-2.1c-0.4-0.6-1-1.1-1.7-1.5c-0.7-0.4-1.5-0.6-2.4-0.6C251,469.8,250.2,470,249.5,470.4"/>
	<path class="st2" d="M294.2,484.3v-2.8h-0.1c-0.5,1.1-1.2,1.8-2.2,2.4c-1,0.6-2,0.8-3.2,0.8c-1,0-1.8-0.1-2.5-0.4
		c-0.7-0.3-1.3-0.7-1.7-1.2c-0.4-0.5-0.7-1.1-1-1.8c-0.2-0.7-0.3-1.6-0.3-2.5v-10.1h1.9v10.2c0,1.4,0.4,2.5,1,3.2
		c0.6,0.7,1.7,1.1,3.2,1.1c0.8,0,1.5-0.2,2.1-0.5c0.6-0.4,1.1-0.8,1.5-1.4c0.4-0.6,0.7-1.3,0.8-2c0.2-0.8,0.3-1.5,0.3-2.3v-8.2h1.9
		v15.6H294.2z"/>
	<polygon class="st2" points="322.6,462.7 322.6,476.2 331.2,468.6 333.8,468.6 327.1,474.4 334.2,484.3 331.9,484.3 325.7,475.8 
		322.6,478.3 322.6,484.3 320.7,484.3 320.7,462.7 	"/>
	<path class="st2" d="M358.9,462.7v9h0.1c0.2-0.6,0.5-1.1,0.9-1.5c0.4-0.4,0.8-0.8,1.3-1.1c0.5-0.3,1-0.5,1.6-0.7
		c0.6-0.1,1.1-0.2,1.7-0.2c1.2,0,2.2,0.2,3.1,0.7c0.9,0.4,1.6,1,2.2,1.8c0.6,0.8,1,1.6,1.3,2.6c0.3,1,0.4,2.1,0.4,3.2
		c0,1.1-0.1,2.2-0.4,3.2c-0.3,1-0.7,1.9-1.3,2.6c-0.6,0.8-1.3,1.4-2.2,1.8c-0.9,0.4-1.9,0.6-3.1,0.6c-1.3,0-2.4-0.3-3.4-0.9
		c-1-0.6-1.7-1.4-2.2-2.5h-0.1v3H357v-21.6H358.9z M369.2,474c-0.2-0.8-0.5-1.5-0.9-2.1c-0.4-0.6-0.9-1.1-1.6-1.5
		c-0.6-0.4-1.4-0.6-2.3-0.6c-1,0-1.9,0.2-2.6,0.6c-0.7,0.4-1.3,0.9-1.7,1.5c-0.4,0.6-0.7,1.3-0.9,2.1c-0.2,0.8-0.3,1.6-0.3,2.4
		c0,0.8,0.1,1.6,0.3,2.4c0.2,0.8,0.5,1.5,0.9,2.1c0.4,0.6,1,1.1,1.7,1.5c0.7,0.4,1.6,0.6,2.6,0.6c0.9,0,1.7-0.2,2.3-0.6
		c0.7-0.4,1.2-0.9,1.6-1.5c0.4-0.6,0.7-1.3,0.9-2.1c0.2-0.8,0.3-1.6,0.3-2.4C369.5,475.6,369.4,474.8,369.2,474"/>
	<path class="st2" d="M395.9,471.1c0.3-0.7,0.8-1.2,1.3-1.6c0.6-0.4,1.2-0.7,2-0.9c0.7-0.2,1.6-0.3,2.5-0.3c0.7,0,1.4,0.1,2.1,0.2
		c0.7,0.1,1.3,0.4,1.8,0.7c0.5,0.4,1,0.9,1.3,1.5c0.4,0.7,0.5,1.5,0.5,2.6v8.3c0,0.8,0.4,1.2,1.1,1.2c0.2,0,0.4,0,0.6-0.1v1.6
		c-0.2,0-0.4,0.1-0.6,0.1c-0.2,0-0.4,0-0.7,0c-0.5,0-0.9-0.1-1.2-0.2c-0.3-0.1-0.5-0.3-0.7-0.6c-0.2-0.2-0.3-0.5-0.3-0.9
		c0-0.3-0.1-0.7-0.1-1.1h-0.1c-0.3,0.5-0.7,0.9-1,1.3c-0.4,0.4-0.7,0.7-1.2,1c-0.4,0.3-0.9,0.5-1.5,0.6c-0.6,0.1-1.2,0.2-2,0.2
		c-0.7,0-1.4-0.1-2-0.3c-0.6-0.2-1.2-0.4-1.7-0.8c-0.5-0.4-0.9-0.9-1.1-1.4c-0.3-0.6-0.4-1.2-0.4-2c0-1.1,0.2-1.9,0.7-2.6
		c0.5-0.6,1.1-1.1,1.9-1.4c0.8-0.3,1.7-0.5,2.7-0.7c1-0.1,2-0.3,3-0.4c0.4,0,0.7-0.1,1.1-0.2c0.3-0.1,0.6-0.2,0.8-0.3
		c0.2-0.2,0.4-0.4,0.5-0.6c0.1-0.3,0.2-0.6,0.2-1c0-0.6-0.1-1.2-0.3-1.6c-0.2-0.4-0.5-0.7-0.9-1c-0.4-0.2-0.8-0.4-1.3-0.5
		c-0.5-0.1-1-0.1-1.6-0.1c-1.2,0-2.2,0.3-3,0.9c-0.8,0.6-1.2,1.5-1.2,2.8h-1.9C395.4,472.5,395.6,471.7,395.9,471.1 M405.4,475.7
		c-0.1,0.2-0.4,0.4-0.7,0.5c-0.3,0.1-0.6,0.2-0.9,0.2c-0.8,0.1-1.6,0.3-2.5,0.4c-0.9,0.1-1.6,0.3-2.3,0.5c-0.7,0.2-1.3,0.5-1.7,1
		c-0.5,0.4-0.7,1-0.7,1.8c0,0.5,0.1,0.9,0.3,1.3c0.2,0.4,0.4,0.7,0.8,1c0.3,0.3,0.7,0.5,1.1,0.6c0.4,0.1,0.9,0.2,1.3,0.2
		c0.7,0,1.4-0.1,2.1-0.3c0.7-0.2,1.2-0.5,1.7-1c0.5-0.4,0.9-0.9,1.2-1.5s0.4-1.3,0.4-2.1L405.4,475.7L405.4,475.7z"/>
	<path class="st2" d="M441.4,471.7c-0.2-0.4-0.5-0.8-0.9-1.1c-0.4-0.3-0.8-0.5-1.3-0.6c-0.5-0.1-1-0.2-1.5-0.2c-0.4,0-0.9,0-1.3,0.1
		c-0.4,0.1-0.8,0.2-1.2,0.5c-0.4,0.2-0.7,0.5-0.9,0.8c-0.2,0.4-0.3,0.8-0.3,1.3c0,0.4,0.1,0.8,0.3,1.1c0.2,0.3,0.5,0.5,0.8,0.7
		c0.3,0.2,0.7,0.4,1.1,0.5c0.4,0.1,0.7,0.2,1.1,0.3l2.5,0.6c0.5,0.1,1.1,0.2,1.6,0.4c0.5,0.2,1,0.5,1.4,0.8c0.4,0.3,0.7,0.8,1,1.3
		c0.3,0.5,0.4,1.1,0.4,1.8c0,0.9-0.2,1.6-0.6,2.2c-0.4,0.6-0.9,1.1-1.5,1.4c-0.6,0.4-1.3,0.6-2,0.8c-0.7,0.2-1.5,0.2-2.2,0.2
		c-1.8,0-3.3-0.4-4.5-1.3c-1.1-0.9-1.8-2.3-1.9-4.2h1.9c0.1,1.3,0.5,2.3,1.4,2.9c0.9,0.7,1.9,1,3.2,1c0.5,0,0.9,0,1.4-0.2
		c0.5-0.1,1-0.3,1.4-0.5c0.4-0.2,0.8-0.5,1-0.9c0.3-0.4,0.4-0.8,0.4-1.4c0-0.5-0.1-0.9-0.3-1.2c-0.2-0.3-0.5-0.6-0.8-0.8
		c-0.3-0.2-0.7-0.4-1.1-0.5c-0.4-0.1-0.8-0.3-1.2-0.4l-2.5-0.5c-0.6-0.2-1.2-0.4-1.7-0.6c-0.5-0.2-1-0.5-1.4-0.8
		c-0.4-0.3-0.7-0.7-0.9-1.1c-0.2-0.5-0.3-1-0.3-1.7c0-0.8,0.2-1.5,0.5-2c0.4-0.6,0.8-1,1.4-1.4c0.6-0.3,1.2-0.6,1.9-0.8
		c0.7-0.2,1.4-0.2,2.1-0.2c0.8,0,1.5,0.1,2.2,0.3c0.7,0.2,1.3,0.5,1.8,0.9c0.5,0.4,0.9,0.9,1.2,1.6c0.3,0.6,0.5,1.4,0.5,2.2h-1.9
		C441.7,472.6,441.6,472.1,441.4,471.7"/>
	<path class="st2" d="M477.1,471.7c-0.2-0.4-0.5-0.8-0.9-1.1c-0.4-0.3-0.8-0.5-1.3-0.6c-0.5-0.1-1-0.2-1.5-0.2c-0.4,0-0.9,0-1.3,0.1
		c-0.4,0.1-0.8,0.2-1.2,0.5c-0.4,0.2-0.7,0.5-0.9,0.8c-0.2,0.4-0.3,0.8-0.3,1.3c0,0.4,0.1,0.8,0.3,1.1c0.2,0.3,0.5,0.5,0.8,0.7
		c0.3,0.2,0.7,0.4,1.1,0.5c0.4,0.1,0.7,0.2,1.1,0.3l2.5,0.6c0.5,0.1,1.1,0.2,1.6,0.4c0.5,0.2,1,0.5,1.4,0.8c0.4,0.3,0.7,0.8,1,1.3
		c0.3,0.5,0.4,1.1,0.4,1.8c0,0.9-0.2,1.6-0.6,2.2c-0.4,0.6-0.9,1.1-1.5,1.4c-0.6,0.4-1.3,0.6-2,0.8c-0.7,0.2-1.5,0.2-2.2,0.2
		c-1.8,0-3.3-0.4-4.5-1.3c-1.1-0.9-1.8-2.3-1.9-4.2h1.9c0.1,1.3,0.5,2.3,1.4,2.9c0.9,0.7,1.9,1,3.2,1c0.5,0,0.9,0,1.4-0.2
		c0.5-0.1,1-0.3,1.4-0.5c0.4-0.2,0.8-0.5,1-0.9c0.3-0.4,0.4-0.8,0.4-1.4c0-0.5-0.1-0.9-0.3-1.2c-0.2-0.3-0.5-0.6-0.8-0.8
		c-0.3-0.2-0.7-0.4-1.1-0.5c-0.4-0.1-0.8-0.3-1.2-0.4l-2.5-0.5c-0.6-0.2-1.2-0.4-1.7-0.6c-0.5-0.2-1-0.5-1.4-0.8
		c-0.4-0.3-0.7-0.7-0.9-1.1c-0.2-0.5-0.3-1-0.3-1.7c0-0.8,0.2-1.5,0.5-2c0.4-0.6,0.8-1,1.4-1.4c0.6-0.3,1.2-0.6,1.9-0.8
		c0.7-0.2,1.4-0.2,2.1-0.2c0.8,0,1.5,0.1,2.2,0.3c0.7,0.2,1.3,0.5,1.8,0.9c0.5,0.4,0.9,0.9,1.2,1.6c0.3,0.6,0.5,1.4,0.5,2.2h-1.9
		C477.4,472.6,477.3,472.1,477.1,471.7"/>
	<path class="st2" d="M505.8,465.7h-1.9v-3.1h1.9V465.7z M505.8,484.3h-1.9v-15.6h1.9V484.3z"/>
	<path class="st2" d="M540.3,468.9c0.9,0.4,1.7,1,2.3,1.8c0.6,0.7,1.1,1.6,1.4,2.6c0.3,1,0.5,2.1,0.5,3.2c0,1.1-0.2,2.2-0.5,3.2
		c-0.3,1-0.8,1.9-1.4,2.6s-1.4,1.3-2.3,1.8c-0.9,0.4-2,0.7-3.2,0.7c-1.2,0-2.2-0.2-3.2-0.7c-0.9-0.4-1.7-1-2.3-1.8s-1.1-1.6-1.4-2.6
		c-0.3-1-0.5-2.1-0.5-3.2c0-1.1,0.2-2.2,0.5-3.2c0.3-1,0.8-1.9,1.4-2.6c0.6-0.7,1.4-1.3,2.3-1.8c0.9-0.4,2-0.7,3.2-0.7
		C538.4,468.2,539.4,468.4,540.3,468.9 M534.8,470.4c-0.7,0.4-1.3,0.9-1.7,1.5c-0.5,0.6-0.8,1.3-1,2.1c-0.2,0.8-0.4,1.6-0.4,2.4
		c0,0.8,0.1,1.6,0.4,2.4c0.2,0.8,0.6,1.5,1,2.1c0.5,0.6,1,1.1,1.7,1.5c0.7,0.4,1.5,0.6,2.4,0.6c0.9,0,1.7-0.2,2.4-0.6
		c0.7-0.4,1.2-0.9,1.7-1.5c0.5-0.6,0.8-1.3,1-2.1c0.2-0.8,0.4-1.6,0.4-2.4c0-0.8-0.1-1.6-0.4-2.4c-0.2-0.8-0.6-1.5-1-2.1
		c-0.5-0.6-1-1.1-1.7-1.5c-0.7-0.4-1.5-0.6-2.4-0.6C536.3,469.8,535.5,470,534.8,470.4"/>
	<path class="st2" d="M579.5,484.3v-2.8h-0.1c-0.5,1.1-1.2,1.8-2.2,2.4c-1,0.6-2,0.8-3.2,0.8c-1,0-1.8-0.1-2.5-0.4
		c-0.7-0.3-1.3-0.7-1.7-1.2c-0.4-0.5-0.7-1.1-1-1.8c-0.2-0.7-0.3-1.6-0.3-2.5v-10.1h1.9v10.2c0,1.4,0.4,2.5,1,3.2
		c0.6,0.7,1.7,1.1,3.2,1.1c0.8,0,1.5-0.2,2.1-0.5c0.6-0.4,1.1-0.8,1.5-1.4c0.4-0.6,0.7-1.3,0.8-2c0.2-0.8,0.3-1.5,0.3-2.3v-8.2h1.9
		v15.6H579.5z"/>
	<path class="st2" d="M607.9,468.6v2.7h0.1c0.4-0.9,1-1.7,1.9-2.3c0.9-0.6,1.9-0.9,3.1-0.9c1.1,0,2,0.1,2.7,0.4
		c0.7,0.3,1.3,0.7,1.8,1.2c0.4,0.5,0.8,1.1,0.9,1.9c0.2,0.7,0.3,1.6,0.3,2.5v10h-1.9v-9.7c0-0.7-0.1-1.3-0.2-1.9
		c-0.1-0.6-0.3-1.1-0.6-1.5c-0.3-0.4-0.7-0.8-1.2-1c-0.5-0.2-1.2-0.4-1.9-0.4s-1.4,0.1-2,0.4c-0.6,0.3-1.1,0.6-1.5,1.1
		c-0.4,0.5-0.7,1-1,1.7c-0.2,0.7-0.4,1.4-0.4,2.1v9.1H606v-15.6H607.9z"/>
	<path class="st2" d="M643.7,468.6l5.1,13.3l4.8-13.3h1.9l-6.8,18c-0.3,0.7-0.5,1.2-0.8,1.6c-0.2,0.4-0.5,0.8-0.8,1
		c-0.3,0.3-0.6,0.4-1,0.5c-0.4,0.1-0.9,0.2-1.5,0.2c-0.4,0-0.7,0-0.9,0c-0.2,0-0.4,0-0.6-0.1v-1.6c0.2,0,0.4,0.1,0.7,0.1
		c0.2,0,0.4,0,0.6,0c0.4,0,0.8-0.1,1.1-0.2c0.3-0.1,0.5-0.3,0.7-0.5c0.2-0.2,0.4-0.5,0.5-0.8c0.1-0.3,0.3-0.6,0.5-1l0.7-1.8
		l-6.2-15.5H643.7z"/>
	<rect x="676.9" y="481" class="st2" width="2.5" height="3.2"/>
	<path class="st2" d="M714.9,470.8c-0.7-0.7-1.7-1-3-1c-0.9,0-1.7,0.2-2.4,0.6c-0.7,0.4-1.2,0.9-1.7,1.5s-0.8,1.3-1,2.1
		c-0.2,0.8-0.4,1.6-0.4,2.4c0,0.8,0.1,1.6,0.4,2.4c0.2,0.8,0.6,1.5,1,2.1s1,1.1,1.7,1.5c0.7,0.4,1.5,0.6,2.4,0.6
		c0.6,0,1.1-0.1,1.7-0.3c0.5-0.2,1-0.5,1.4-0.9c0.4-0.4,0.7-0.9,1-1.4c0.3-0.5,0.4-1.1,0.5-1.8h1.9c-0.3,1.9-1,3.4-2.1,4.4
		c-1.1,1.1-2.6,1.6-4.4,1.6c-1.2,0-2.2-0.2-3.2-0.7c-0.9-0.4-1.7-1-2.3-1.8c-0.6-0.7-1.1-1.6-1.4-2.6c-0.3-1-0.5-2.1-0.5-3.2
		c0-1.1,0.2-2.2,0.5-3.2c0.3-1,0.8-1.9,1.4-2.6c0.6-0.7,1.4-1.3,2.3-1.8c0.9-0.4,2-0.7,3.2-0.7c1.7,0,3.1,0.4,4.2,1.3
		c1.2,0.9,1.8,2.2,2.1,4h-1.9C716.1,472.4,715.6,471.5,714.9,470.8"/>
	<path class="st2" d="M752,468.9c0.9,0.4,1.7,1,2.3,1.8c0.6,0.7,1.1,1.6,1.4,2.6c0.3,1,0.5,2.1,0.5,3.2c0,1.1-0.2,2.2-0.5,3.2
		c-0.3,1-0.8,1.9-1.4,2.6s-1.4,1.3-2.3,1.8c-0.9,0.4-2,0.7-3.2,0.7c-1.2,0-2.2-0.2-3.2-0.7c-0.9-0.4-1.7-1-2.3-1.8
		c-0.6-0.7-1.1-1.6-1.4-2.6c-0.3-1-0.5-2.1-0.5-3.2c0-1.1,0.2-2.2,0.5-3.2c0.3-1,0.8-1.9,1.4-2.6c0.6-0.7,1.4-1.3,2.3-1.8
		c0.9-0.4,2-0.7,3.2-0.7C750,468.2,751.1,468.4,752,468.9 M746.4,470.4c-0.7,0.4-1.3,0.9-1.7,1.5c-0.5,0.6-0.8,1.3-1,2.1
		c-0.2,0.8-0.4,1.6-0.4,2.4c0,0.8,0.1,1.6,0.4,2.4c0.2,0.8,0.6,1.5,1,2.1c0.5,0.6,1,1.1,1.7,1.5c0.7,0.4,1.5,0.6,2.4,0.6
		c0.9,0,1.7-0.2,2.4-0.6c0.7-0.4,1.2-0.9,1.7-1.5c0.5-0.6,0.8-1.3,1-2.1c0.2-0.8,0.4-1.6,0.4-2.4c0-0.8-0.1-1.6-0.4-2.4
		c-0.2-0.8-0.6-1.5-1-2.1c-0.5-0.6-1-1.1-1.7-1.5c-0.7-0.4-1.5-0.6-2.4-0.6C747.9,469.8,747.1,470,746.4,470.4"/>
	<path class="st2" d="M782,468.6v2.6h0.1c0.5-1,1.2-1.7,2-2.3c0.8-0.5,1.9-0.8,3.1-0.8c1,0,2,0.3,2.8,0.8c0.8,0.5,1.4,1.3,1.7,2.3
		c0.5-1,1.1-1.8,2.1-2.3c0.9-0.5,1.9-0.8,2.9-0.8c3.4,0,5.2,1.8,5.2,5.5v10.6h-1.9v-10.5c0-1.3-0.3-2.3-0.8-3c-0.5-0.7-1.5-1-2.9-1
		c-0.8,0-1.5,0.2-2.1,0.5c-0.5,0.3-1,0.7-1.3,1.3c-0.3,0.5-0.5,1.1-0.7,1.8c-0.1,0.7-0.2,1.4-0.2,2.1v8.8H790v-10.6
		c0-0.5-0.1-1-0.2-1.5c-0.1-0.5-0.3-0.9-0.5-1.2c-0.3-0.4-0.6-0.6-1-0.8c-0.4-0.2-0.9-0.3-1.5-0.3c-0.8,0-1.5,0.1-2.1,0.4
		c-0.6,0.3-1.1,0.7-1.4,1.2c-0.4,0.5-0.7,1.1-0.8,1.8c-0.2,0.7-0.3,1.5-0.3,2.3v8.7h-1.9v-15.6H782z"/>
</g>
</svg>
